<svg xmlns="http://www.w3.org/2000/svg" width="1600" height="180" viewBox="0 0 1600 180">
  <rect width="1600" height="180" fill="transparent"/>
  <g stroke="#D42121" stroke-width="5" stroke-linecap="round">
    <line x1="30" y1="39" x2="30" y2="141"/><line x1="48" y1="70" x2="48" y2="110"/><line x1="66" y1="68" x2="66" y2="112"/><line x1="84" y1="64" x2="84" y2="116"/><line x1="102" y1="113" x2="102" y2="67"/><line x1="120" y1="160" x2="120" y2="20"/><line x1="138" y1="132" x2="138" y2="48"/><line x1="156" y1="87" x2="156" y2="93"/><line x1="174" y1="86" x2="174" y2="94"/><line x1="192" y1="82" x2="192" y2="98"/><line x1="210" y1="38" x2="210" y2="142"/><line x1="228" y1="28" x2="228" y2="152"/><line x1="246" y1="86" x2="246" y2="94"/><line x1="264" y1="129" x2="264" y2="51"/><line x1="282" y1="116" x2="282" y2="64"/><line x1="300" y1="113" x2="300" y2="67"/><line x1="318" y1="138" x2="318" y2="42"/><line x1="336" y1="115" x2="336" y2="65"/><line x1="354" y1="49" x2="354" y2="131"/><line x1="372" y1="30" x2="372" y2="150"/><line x1="390" y1="67" x2="390" y2="113"/><line x1="408" y1="80" x2="408" y2="100"/><line x1="426" y1="71" x2="426" y2="109"/><line x1="444" y1="108" x2="444" y2="72"/><line x1="462" y1="159" x2="462" y2="21"/><line x1="480" y1="139" x2="480" y2="41"/><line x1="498" y1="84" x2="498" y2="96"/><line x1="516" y1="73" x2="516" y2="107"/><line x1="534" y1="79" x2="534" y2="101"/><line x1="552" y1="47" x2="552" y2="133"/><line x1="570" y1="29" x2="570" y2="151"/><line x1="588" y1="82" x2="588" y2="98"/><line x1="606" y1="135" x2="606" y2="45"/><line x1="624" y1="126" x2="624" y2="54"/><line x1="642" y1="109" x2="642" y2="71"/><line x1="660" y1="127" x2="660" y2="53"/><line x1="678" y1="115" x2="678" y2="65"/><line x1="696" y1="52" x2="696" y2="128"/><line x1="714" y1="23" x2="714" y2="157"/><line x1="732" y1="62" x2="732" y2="118"/><line x1="750" y1="89" x2="750" y2="91"/><line x1="768" y1="81" x2="768" y2="99"/><line x1="786" y1="105" x2="786" y2="75"/><line x1="804" y1="155" x2="804" y2="25"/><line x1="822" y1="144" x2="822" y2="36"/><line x1="840" y1="83" x2="840" y2="97"/><line x1="858" y1="61" x2="858" y2="119"/><line x1="876" y1="74" x2="876" y2="106"/><line x1="894" y1="55" x2="894" y2="125"/><line x1="912" y1="34" x2="912" y2="146"/><line x1="930" y1="78" x2="930" y2="102"/><line x1="948" y1="139" x2="948" y2="41"/><line x1="966" y1="136" x2="966" y2="44"/><line x1="984" y1="107" x2="984" y2="73"/><line x1="1002" y1="115" x2="1002" y2="65"/><line x1="1020" y1="112" x2="1020" y2="68"/><line x1="1038" y1="56" x2="1038" y2="124"/><line x1="1056" y1="20" x2="1056" y2="160"/><line x1="1074" y1="57" x2="1074" y2="123"/><line x1="1092" y1="96" x2="1092" y2="84"/><line x1="1110" y1="92" x2="1110" y2="88"/><line x1="1128" y1="103" x2="1128" y2="77"/><line x1="1146" y1="148" x2="1146" y2="32"/><line x1="1164" y1="147" x2="1164" y2="33"/><line x1="1182" y1="84" x2="1182" y2="96"/><line x1="1200" y1="50" x2="1200" y2="130"/><line x1="1218" y1="67" x2="1218" y2="113"/><line x1="1236" y1="63" x2="1236" y2="117"/><line x1="1254" y1="41" x2="1254" y2="139"/><line x1="1272" y1="75" x2="1272" y2="105"/><line x1="1290" y1="140" x2="1290" y2="40"/><line x1="1308" y1="146" x2="1308" y2="34"/><line x1="1326" y1="108" x2="1326" y2="72"/><line x1="1344" y1="102" x2="1344" y2="78"/><line x1="1362" y1="106" x2="1362" y2="74"/><line x1="1380" y1="61" x2="1380" y2="119"/><line x1="1398" y1="19" x2="1398" y2="161"/><line x1="1416" y1="51" x2="1416" y2="129"/><line x1="1434" y1="102" x2="1434" y2="78"/><line x1="1452" y1="105" x2="1452" y2="75"/><line x1="1470" y1="103" x2="1470" y2="77"/><line x1="1488" y1="140" x2="1488" y2="40"/><line x1="1506" y1="147" x2="1506" y2="33"/><line x1="1524" y1="87" x2="1524" y2="93"/><line x1="1542" y1="42" x2="1542" y2="138"/><line x1="1560" y1="58" x2="1560" y2="122"/>
  </g>
</svg>